<?xml version="1.0" encoding="UTF-8" standalone="no"?>
<!-- Created with Inkscape (http://www.inkscape.org/) -->

<svg
   version="1.1"
   id="svg1"
   width="425"
   height="1289"
   viewBox="0 0 425 1289"
   sodipodi:docname="body-back.svg"
   inkscape:version="1.3.2 (091e20e, 2023-11-25, custom)"
   xmlns:inkscape="http://www.inkscape.org/namespaces/inkscape"
   xmlns:sodipodi="http://sodipodi.sourceforge.net/DTD/sodipodi-0.dtd"
   xmlns="http://www.w3.org/2000/svg"
   xmlns:svg="http://www.w3.org/2000/svg">
  <defs
     id="defs1" />
  <sodipodi:namedview
     id="namedview1"
     pagecolor="#ffffff"
     bordercolor="#000000"
     borderopacity="0.25"
     inkscape:showpageshadow="2"
     inkscape:pageopacity="0.0"
     inkscape:pagecheckerboard="0"
     inkscape:deskcolor="#d1d1d1"
     inkscape:zoom="0.45500388"
     inkscape:cx="554.94032"
     inkscape:cy="871.42114"
     inkscape:window-width="1920"
     inkscape:window-height="1009"
     inkscape:window-x="2552"
     inkscape:window-y="-8"
     inkscape:window-maximized="1"
     inkscape:current-layer="g1" />
  <g
     inkscape:groupmode="layer"
     inkscape:label="Image"
     id="g1">
    <path
       style="fill:#000000"
       d="m 136.20886,1100.395 c -6.60893,-1.4404 -12.88133,-1.8627 -28.1933,-1.8983 -19.191657,-0.044 -19.732937,-0.1023 -21.249987,-2.2682 -3.71498,-5.3039 -0.98692,-9.6112 10.20013,-16.1051 13.663637,-7.9315 33.249437,-26.911 37.359987,-36.2036 1.86429,-4.2145 1.99445,-5.8648 1.40447,-17.8069 -1.24416,-25.184 -3.4694,-48.3068 -6.89642,-71.6619 -1.89656,-12.925 -3.60053,-24.175 -3.78659,-25 -0.29375,-1.3025 3.59953,-1.538 29.57303,-1.7887 16.45123,-0.1588 30.22659,0.066 30.61193,0.5 0.38533,0.4338 -0.77897,16.5387 -2.58733,35.7887 -1.80836,19.25 -3.59956,43.775 -3.98046,54.5 -0.60902,17.1487 -0.43255,21.2484 1.46357,34 1.18585,7.975 2.43017,19.5091 2.76515,25.6314 0.55096,10.0697 0.4043,11.5544 -1.53765,15.5659 -3.60779,7.4527 -7.27408,8.8228 -23.28268,8.7009 -8.93668,-0.068 -16.17973,-0.7154 -21.86385,-1.9542 z m 97.01654,0.2046 c -1.8987,-1.0183 -4.3667,-3.075 -5.4844,-4.5705 -3.0586,-4.0923 -3.2364,-18.2443 -0.5055,-40.2614 1.8736,-15.1065 2.1178,-20.7069 1.6049,-36.8167 -0.5462,-17.1553 -4.7187,-74.864 -6.2757,-86.7965 l -0.6258,-4.7965 30.635,0.1507 c 16.8492,0.083 30.635,0.2686 30.635,0.4128 0,0.1442 -1.5509,10.3348 -3.4463,22.6458 -4.1107,26.6989 -6.469,50.4176 -7.2466,72.8837 -0.6858,19.8148 -0.5289,20.3311 9.7078,31.9481 9.4688,10.7455 20.365,19.9528 28.9538,24.4661 10.3357,5.4313 13.4112,10.7429 9.4746,16.3633 -1.5236,2.1752 -1.9981,2.2225 -22.3007,2.2225 -16.9859,0 -22.3652,0.3584 -29.6933,1.9784 -12.261,2.7104 -30.5326,2.7982 -35.4328,0.1702 z M 123.75992,922.2153 c -0.21842,-0.6954 -1.89008,-10.26432 -3.71479,-21.26432 -3.14422,-18.95439 -3.31815,-21.33315 -3.32697,-45.5 -0.008,-22.66926 0.81593,-34.98223 3.09674,-46.2632 l 0.55867,-2.7632 33.66764,0.2632 33.66765,0.2632 0.84314,11 c 1.43912,18.77535 1.15773,79.50045 -0.43094,93 l -1.4122,12.00002 -31.2759,0.2643 c -24.51806,0.2071 -31.36172,-0.01 -31.67304,-1 z m 98.06958,0.4308 c -0.7058,-1.142 -3.542,-31.41606 -4.2833,-45.72016 -0.5459,-10.5331 0.5387,-40.37295 2.2617,-62.22496 l 0.5716,-7.25 h 33.8352 33.8353 l 0.5319,2.75 c 2.2311,11.53348 3.1053,24.7231 3.0987,46.75 -0.01,25.55442 -0.6748,31.55799 -7.0832,63.75 L 284.05,923.451 h -30.8616 c -16.9738,0 -31.0853,-0.3622 -31.3589,-0.8049 z M 119.72555,797.95098 c -0.29147,-2.2 -1.20214,-13 -2.02371,-24 -0.82158,-11 -2.40031,-30.575 -3.5083,-43.5 -1.10799,-12.925 -2.35251,-29.0125 -2.76559,-35.75 l -0.75106,-12.25 h 42.76598 c 35.55649,0 42.76599,0.23109 42.76599,1.37083 0,2.53626 -3.01047,42.92607 -4.96623,66.62917 -1.06645,12.925 -2.25019,29.67607 -2.63051,37.22459 l -0.69151,13.72459 -33.83256,0.27541 -33.83256,0.27541 z m 100.07165,-2.75 c -0.6019,-7.4937 -4.69592,-63.7938 -6.90821,-95 l -1.25834,-17.75 h 43.05505 43.0551 l -0.7546,12.25 c -0.4151,6.7375 -1.6477,23.275 -2.7391,36.75 -1.0915,13.475 -2.7002,34.4 -3.5751,46.5 -0.8748,12.1 -1.7728,22.5625 -1.9955,23.25 -0.3134,0.9675 -8.0767,1.25 -34.3509,1.25 H 220.3795 Z M 109.6374,663.71153 c -2.28392,-40.42304 -0.36324,-87.97626 5.05588,-125.17629 1.32876,-9.12134 2.93482,-20.52176 3.56904,-25.33426 l 1.15312,-8.75 h 40.90563 40.90563 l -0.25892,52.14055 -0.25892,52.14055 -9.24795,3.33744 -9.24794,3.33744 -19.25206,-1.47704 c -21.51052,-1.65031 -25.17735,-2.40242 -32.00205,-6.56399 l -4.75,-2.89646 v 2.92809 c 0,2.60486 0.70792,3.2766 6.41285,6.08513 7.09856,3.49461 13.11415,4.45578 35.76917,5.71522 14.97858,0.83269 16.21234,0.68574 26.00085,-3.09678 l 6.68287,-2.58243 -0.5729,9.21614 c -0.31509,5.06888 -1.29738,19.34114 -2.18287,31.71614 l -1.60997,22.5 -43.14699,0.26055 -43.14699,0.26054 z m 101.56752,12.48945 c -0.002,-0.6875 -0.9004,-14.075 -1.99606,-29.75 -1.09566,-15.675 -1.99389,-29.50118 -1.99606,-30.72485 l -0.004,-2.22484 8.25,3.09887 8.25,3.09887 17,-1.20135 c 24.6779,-1.74393 29.9801,-2.55764 36.0652,-5.53481 4.6131,-2.25698 5.4348,-3.07381 5.4348,-5.40272 v -2.74373 l -6.75,3.30254 c -6.5222,3.19109 -7.4925,3.35945 -28.7509,4.98891 l -22.001,1.68637 -9.249,-3.30848 -9.24904,-3.30847 v -51.86316 -51.86315 h 41.50004 c 32.527,0 41.5025,0.27027 41.5117,1.25 0.02,2.16724 3.8532,31.81346 5.4623,42.25 3.8899,25.23111 5.8233,84.32732 3.8686,118.25 l -0.6482,11.25 h -43.3472 c -34.009,0 -43.34809,-0.26929 -43.35118,-1.25 z M 78.031913,675.37183 c -0.83896,-0.4695 -5.3828,-5.93127 -10.09743,-12.13725 -7.62884,-10.04203 -9.09299,-12.69079 -13.3065,-24.07242 l -4.73445,-12.78882 2.26215,-14.71118 c 1.24418,-8.09115 2.76973,-18.25873 3.39011,-22.59462 l 1.12797,-7.88344 15.51016,0.70939 c 8.53059,0.39016 15.61022,0.80944 15.73251,0.93173 1.2584,1.25839 7.29617,26.00648 7.30829,29.95573 0.0237,7.74574 -3.17653,38.03309 -4.13072,39.0929 -0.50491,0.56082 -1.75561,0.50155 -3.18795,-0.15107 -4.08312,-1.86039 -6.69719,-11.09058 -6.69719,-23.64752 v -10.67039 l -2.5,1.63807 c -2.36665,1.55069 -2.5,2.12852 -2.5,10.83344 0,10.09054 0.95581,13.26091 8.97723,29.77713 l 4.22656,8.70254 -2.09982,2.94891 c -2.3758,3.33651 -6.98047,5.35426 -9.28092,4.06687 z M 324.7037,675.00025 c -1.6471,-0.70181 -3.8537,-2.23934 -4.9035,-3.41674 -1.8956,-2.12604 -1.865,-2.23507 4.4706,-15.88663 6.3474,-13.67705 6.3812,-13.7976 6.7518,-24.06759 0.3294,-9.12876 0.1594,-10.47866 -1.4706,-11.67985 -1.6264,-1.19842 -1.9196,-1.10177 -2.4935,0.82169 -0.3576,1.19892 -0.6951,5.85231 -0.75,10.34087 -0.1201,9.84048 -3.1229,18.93681 -6.8048,20.61441 -1.4266,0.65001 -2.6706,0.70791 -3.1678,0.14744 -0.9307,-1.04913 -3.1535,-28.58804 -3.1013,-38.42287 0.024,-4.42428 1.1224,-10.12561 3.4411,-17.8534 1.8737,-6.24437 3.6347,-11.58148 3.9135,-11.86023 0.3965,-0.39658 29.9228,-3.20322 30.1846,-2.86923 0.3872,0.49389 6.4867,41.77378 6.4647,43.75177 -0.016,1.4679 -2.0641,8.22483 -4.5507,15.0154 -4.1097,11.22336 -5.3313,13.38398 -13.4288,23.75153 -4.8993,6.27278 -9.5047,11.73904 -10.2341,12.14725 -0.7295,0.40821 -2.674,0.16799 -4.3212,-0.53382 z m -6.3608,-111.69 c -1.2197,-8.4476 -3.3016,-22.78427 -4.6264,-31.85927 -1.3248,-9.075 -3.3388,-23.025 -4.4756,-31 -3.102,-21.76226 -6.742,-62.40408 -6.1139,-68.26419 0.045,-0.4203 1.8209,0.38663 3.9463,1.79318 4.3689,2.89117 4.4702,2.90462 19.9828,2.6542 l 11.3472,-0.18319 6.9028,-6.66406 c 3.7965,-3.66524 6.9064,-6.47774 6.9108,-6.25 0,0.22773 0.6793,5.79696 1.5,12.37605 1.923,15.41801 1.8584,27.28286 -0.4821,88.449 -1.3385,34.98164 -2.2803,50.62817 -3.077,51.12056 -0.6314,0.39027 -5.0408,1.00438 -9.7985,1.36469 -4.7577,0.36032 -11.1588,0.91774 -14.2246,1.23871 l -5.5741,0.58359 z m -253.634037,13.20735 -8,-0.56662 -0.65312,-16 c -4.12148,-100.96626 -4.13978,-113.58276 -0.19426,-133.86691 l 0.55765,-2.86692 6.38395,6.32721 c 6.37853,6.32183 6.39013,6.32783 13.64487,7.05509 14.2521,1.42872 19.87238,1.04955 24.612977,-1.66052 2.39364,-1.36837 4.5254,-2.48795 4.73725,-2.48795 0.5304,0 -0.35186,11.78349 -2.68455,35.85507 -1.84454,19.03431 -4.423977,38.18482 -11.860827,88.05846 -1.67416,11.22744 -3.04394,20.56494 -3.04394,20.75 0,0.4509 -13.5742,0.10611 -23.5,-0.59691 z m 55.855457,-84.31662 c 0.35505,-3.9875 0.94158,-18.14298 1.3034,-31.45662 l 0.65786,-24.20661 39.34164,-0.0641 39.34164,-0.0642 v 31.52076 31.52076 h -40.64504 -40.64503 z m 85.64454,-24.26134 v -31.51135 l 40.03374,0.26135 40.0338,0.26134 0.3838,21.5 c 0.211,11.825 0.7123,25.8875 1.1138,31.25 l 0.7301,9.75 H 247.3565 206.20886 Z M 73.061603,431.58267 c -1.50189,-0.35838 -5.57463,-3.801 -9.41321,-7.95684 l -6.76594,-7.32514 1.67636,-23.17486 c 0.92199,-12.74617 2.33025,-32.84985 3.12945,-44.67485 3.74207,-55.36774 4.24171,-59.04008 9.29711,-68.33325 1.49792,-2.75359 4.58089,-6.86444 6.85104,-9.13524 4.32349,-4.32471 7.81254,-6.04468 40.372447,-19.90204 23.02211,-9.79811 41.34307,-17.78409 47.37076,-20.64857 6.90192,-3.27993 7.60179,-5.47934 7.18761,-22.58783 -0.3329,-13.75116 -0.38009,-14.00091 -3.85636,-20.4073 -1.93564,-3.56717 -4.3328,-9.12142 -5.32703,-12.34278 -1.28777,-4.17244 -2.44946,-6.10101 -4.03903,-6.70536 -1.22725,-0.4666 -2.93917,-1.92862 -3.80427,-3.24894 -2.03017,-3.09843 -4.53168,-16.20383 -4.53168,-23.74147 0,-5.07677 0.30632,-6.03816 2.25,-7.06174 3.30903,-1.74259 3.71782,-2.77277 3.73469,-9.41171 0.0793,-31.219574 11.83078,-47.867084 37.51531,-53.145474 15.33746,-3.15197 32.49344,1.0939 42.79744,10.59175 10.063,9.27578 13.2361,17.24257 14.7304,36.984754 0.566,7.47736 1.4025,13.72393 1.8588,13.88126 3.6124,1.24542 4.376,3.00736 4.2463,9.79742 -0.2506,13.11413 -3.1706,22.56529 -7.5946,24.581 -1.7327,0.7895 -2.9602,2.92746 -4.5891,7.99329 -1.223,3.80353 -3.8028,9.48653 -5.733,12.62887 -3.4876,5.67791 -3.5123,5.80063 -3.9832,19.78012 -0.582,17.27565 0.013,18.88598 8.4708,22.91987 7.7,3.67255 23.5107,10.48523 53.6431,23.11443 13.6659,5.72766 26.8547,11.85575 29.3086,13.61799 6.1936,4.44791 11.7333,13.11722 13.7106,21.45614 1.6906,7.12975 3.0783,20.20026 4.122,38.82481 0.339,6.05 1.7103,26.075 3.0473,44.5 1.337,18.425 2.5812,35.77966 2.7648,38.5659 0.3301,5.01026 0.2602,5.14684 -6.3664,12.43445 -6.5252,7.17616 -6.8533,7.38763 -12.567,8.09971 -13.039,1.62503 -18.0642,1.14597 -24.3178,-2.31825 l -5.8094,-3.21819 -0.6401,-8.03181 c -1.9438,-24.38909 -2.5312,-45.14187 -1.6044,-56.67591 1.1972,-14.89846 2.8223,-31.16247 3.5576,-35.6059 0.4855,-2.93342 0.2977,-3.25 -1.928,-3.25 -2.8165,0 -3.1478,1.03873 -4.1455,13 -0.7082,8.49136 -9.1755,86.23027 -10.1022,92.75 l -0.6041,4.25 h -40.3865 -40.38644 v -84 -84 h 19.93494 c 20.1094,0 25.0651,-0.6871 25.0651,-3.47525 0,-1.34471 -5.5498,-1.52475 -47.00004,-1.52475 -41.45019,0 -47,0.18004 -47,1.52475 0,2.77739 4.93289,3.47525 24.5651,3.47525 h 19.4349 v 84 84 h -39.85881 -39.85881 l -1.18074,-10.25 c -1.942,-16.85843 -4.97719,-45.90761 -7.13106,-68.25 -3.3644,-34.89935 -2.75402,-31.5 -5.65608,-31.5 -2.41795,0 -2.51228,0.20674 -1.93905,4.25 1.5292,10.78625 3.75164,41.28495 3.69815,50.75 -0.0555,9.81985 -2.65343,48.95766 -3.28638,49.50915 -0.15797,0.13764 -2.63476,1.42938 -5.50398,2.87055 -4.637047,2.32912 -6.303897,2.60715 -14.999987,2.50199 -5.38079,-0.0651 -10.97452,-0.40258 -12.43051,-0.75 z"
       id="path1" />
  </g>
</svg>
