<?xml version="1.0" encoding="UTF-8" standalone="no"?>
<!-- Created with Inkscape (http://www.inkscape.org/) -->

<svg
   version="1.1"
   id="svg1"
   width="406"
   height="1289"
   viewBox="0 0 406 1289"
   sodipodi:docname="body-front.svg"
   inkscape:version="1.3.2 (091e20e, 2023-11-25, custom)"
   xmlns:inkscape="http://www.inkscape.org/namespaces/inkscape"
   xmlns:sodipodi="http://sodipodi.sourceforge.net/DTD/sodipodi-0.dtd"
   xmlns="http://www.w3.org/2000/svg"
   xmlns:svg="http://www.w3.org/2000/svg">
  <defs
     id="defs1" />
  <sodipodi:namedview
     id="namedview1"
     pagecolor="#ffffff"
     bordercolor="#000000"
     borderopacity="0.25"
     inkscape:showpageshadow="2"
     inkscape:pageopacity="0.0"
     inkscape:pagecheckerboard="0"
     inkscape:deskcolor="#d1d1d1"
     inkscape:zoom="0.64347266"
     inkscape:cx="140.64312"
     inkscape:cy="602.20119"
     inkscape:window-width="1920"
     inkscape:window-height="1009"
     inkscape:window-x="2552"
     inkscape:window-y="-8"
     inkscape:window-maximized="1"
     inkscape:current-layer="g1" />
  <g
     inkscape:groupmode="layer"
     inkscape:label="Image"
     id="g1">
    <path
       style="fill:#000000"
       d="m 100.24862,1114.6768 c -5.292489,-4.163 -2.993869,-11.2232 6.45179,-19.8166 6.66657,-6.065 28.55939,-35.6126 30.42502,-41.063 0.67675,-1.9771 1.55247,-6.6322 1.94604,-10.3447 l 0.7156,-6.75 h 19.7285 19.72851 l 0.61061,15.25 c 0.33584,8.3875 1.16765,19.6059 1.84848,24.9299 1.84715,14.4445 1.39352,15.528 -10.6491,25.4351 -5.5,4.5246 -11.76031,9.4998 -13.9118,11.0558 l -3.9118,2.8292 -25.14364,0.2969 c -24.33354,0.2874 -25.23046,0.2287 -27.83821,-1.8226 z m 156.67736,1.3598 c -1.17045,-0.2427 -5.22045,-3.0303 -9,-6.1945 -3.77955,-3.1643 -8.89691,-7.1424 -11.37191,-8.8402 -7.31165,-5.0157 -9.05552,-7.4373 -9.67444,-13.434 -0.30532,-2.9583 -0.0293,-8.7507 0.61337,-12.872 0.64267,-4.1214 1.43907,-14.3559 1.76977,-22.7434 l 0.60129,-15.25 20.09501,0.01 20.095,0.01 0.25284,5.9855 c 0.13906,3.2921 0.84803,7.7131 1.57549,9.8246 2.11337,6.1341 20.42934,31.8863 29.28091,41.1689 4.46009,4.6773 8.62259,9.4871 9.25,10.6884 1.56027,2.9875 1.43261,7.534 -0.27726,9.8746 -1.33285,1.8246 -2.9096,1.9494 -26.25,2.0789 -13.65759,0.076 -25.78962,-0.061 -26.96007,-0.3036 z m -118.79449,-88.5842 c -2.59025,-20.1944 -7.25495,-52.33507 -9.65528,-66.52687 -1.60718,-9.5023 -2.92215,-17.8273 -2.92216,-18.5 -1e-5,-0.942 6.92706,-1.1726 30.13672,-1.0031 16.57521,0.121 30.25192,0.346 30.39271,0.5 0.14078,0.154 -0.34151,6.3549 -1.07175,13.7799 -1.63986,16.6739 -4.15445,48.55557 -5.06756,64.25007 l -0.68361,11.75 h -20.29197 -20.29197 z m 91.42258,2.4829 c 0,-3.9305 -2.17754,-35.14077 -3.99315,-57.23287 -1.06222,-12.9251 -2.05176,-25.2135 -2.19897,-27.3077 l -0.26766,-3.8076 29.92452,0.086 c 16.45848,0.047 30.05387,0.2149 30.21198,0.373 0.15811,0.1581 -0.36522,4.083 -1.16296,8.7221 -2.3335,13.5699 -6.23736,41.0603 -8.51118,59.93457 -1.15954,9.625 -2.33981,18.2875 -2.62281,19.25 -0.46832,1.5927 -2.35021,1.75 -20.94716,1.75 -18.86814,0 -20.43261,-0.1353 -20.43261,-1.7671 z M 124.08539,935.45238 c -0.22325,-0.6875 -2.11296,-11.375 -4.19936,-23.75 -3.4001,-20.16701 -3.79162,-24.31455 -3.77593,-40 0.0101,-10.08574 0.80752,-24.84098 1.88219,-34.82703 1.79753,-16.70309 1.94024,-17.30674 3.96323,-16.76365 1.1542,0.30985 3.78852,0.56951 5.85404,0.57702 l 3.75548,0.0137 5.74046,11.53227 5.74045,11.53226 9.92434,-0.28226 9.92435,-0.28227 6.98876,-11.25 6.98877,-11.25 h 5.68081 5.6808 l 1.32569,33.13498 c 1.2073,30.17585 1.16652,35.28859 -0.45662,57.25 -0.98028,13.26326 -1.98133,24.45252 -2.22457,24.86502 -0.24323,0.4125 -14.37981,0.75 -31.41461,0.75 -23.89474,0 -31.06513,-0.28564 -31.37828,-1.25 z m 98.46868,0.85681 c 0,-0.21626 -0.63819,-6.62876 -1.41821,-14.25 -2.58035,-25.21167 -2.82179,-36.17452 -1.51794,-68.92411 l 1.29122,-32.4327 h 5.81907 5.81907 l 3.7534,6.10284 c 2.06436,3.35657 5.34464,8.41907 7.2895,11.25 l 3.53611,5.14716 h 9.81372 9.81372 l 5.65017,-11.23196 5.65017,-11.23196 5.61191,-0.018 5.6119,-0.018 0.61784,6.25 c 4.79468,48.50288 4.59723,55.07026 -2.87156,95.50915 -1.35855,7.3557 -2.47009,13.56903 -2.47009,13.80742 0,0.23839 -13.95,0.43343 -31,0.43343 -17.05,0 -31,-0.17694 -31,-0.39319 z m -82.2911,-108.87165 -5.7911,-11.24774 0.69446,-16.24371 0.69446,-16.24371 h 18.34664 18.34664 v 17.65744 17.65744 l -6.24857,9.84256 -6.24858,9.84256 -7.00142,-0.009 -7.00143,-0.009 z m 105.01414,4.55822 c -9.53392,-14.99438 -8.72304,-12.09767 -8.72304,-31.16142 v -17.13196 h 18.38547 18.38546 l 0.71929,16.7719 0.71929,16.7719 -5.5262,10.4781 -5.5262,10.4781 -7.05731,0.29338 -7.0573,0.29338 z M 120.20504,814.94665 c -0.64445,-1.04274 -7.83308,-87.85973 -9.97719,-120.49427 l -0.44347,-6.75 h 43.88484 43.88485 l 0.0125,2.25 c 0.0138,2.49768 -2.79311,41.24961 -6.55211,90.45739 -1.35319,17.71407 -2.46034,32.90157 -2.46034,33.75 0,1.20316 -1.21026,1.54261 -5.5,1.54261 h -5.50005 v -18.5 -18.5 h -22.875 -22.875 l -0.625,3.125 c -0.34375,1.71875 -0.6277,6.33125 -0.63099,10.25 -0.003,3.91875 -0.295,10.8375 -0.64822,15.375 l -0.64222,8.25 h -4.29277 c -2.36102,0 -4.50294,-0.34008 -4.75983,-0.75573 z m 100.33512,-1.99427 c -0.0153,-3.02252 -3.09449,-47.30049 -5.47648,-78.75 -0.83314,-11 -1.85572,-25.9625 -2.27241,-33.25 l -0.75761,-13.25 h 43.69733 43.69734 l -0.42365,3.25 c -0.233,1.7875 -1.12525,13.375 -1.98277,25.75 -0.85753,12.375 -2.64275,35.775 -3.96716,52 -1.32441,16.225 -2.7089,33.45911 -3.07663,38.29802 l -0.6686,8.79802 -5.12773,-0.29802 -5.12772,-0.29802 -0.2392,-6 c -0.13155,-3.3 -0.35655,-11.4 -0.5,-18 l -0.2608,-12 -23.25,-0.0566 -23.25,-0.0566 v 18.30661 18.30661 h -5.5 c -5.32996,0 -5.50043,-0.085 -5.51391,-2.75 z M 317.1255,687.13095 c -3.02655,-3.02655 -1.78593,-6.31619 6.92857,-18.37182 l 8.5,-11.7589 v -15.93612 c 0,-14.79163 -0.13293,-15.94614 -1.851,-16.07555 -1.70233,-0.12824 -1.89759,1.0729 -2.43112,14.95515 l -0.58012,15.09459 -4.53379,4.53379 c -2.49359,2.49359 -4.80549,4.2621 -5.13757,3.93002 -0.83012,-0.83012 -2.23618,-16.38538 -3.05809,-33.8318 -0.64963,-13.78936 -0.55114,-14.99041 1.92712,-23.5 1.43646,-4.93236 2.90614,-10.88043 3.26597,-13.21793 l 0.65422,-4.25 5.12219,-0.005 c 2.8172,-0.003 10.09403,-0.29107 16.17073,-0.64126 l 11.04854,-0.63672 3.38007,19.89127 c 5.07263,29.85178 5.40289,25.7809 -3.53107,43.52493 -6.39945,12.71016 -8.7056,16.28873 -13.34144,20.70259 -8.793,8.37196 -19.06776,17.16374 -20.05889,17.16374 -0.49659,0 -1.61003,-0.70714 -2.47432,-1.57143 z m -240.933199,-9.19919 -10.86176,-9.72938 -7.98745,-16 -7.98745,-16 0.57089,-6.34955 c 0.56066,-6.23592 5.45447,-38.31452 6.26102,-41.04057 0.32077,-1.0842 1.75904,-1.24925 6.53559,-0.75 3.36837,0.35207 10.4458,0.6446 15.72762,0.65008 l 9.60331,0.01 3.76147,15.3149 3.76147,15.31491 -2.09732,21.92513 c -1.15353,12.05883 -2.24832,22.07726 -2.43286,22.26319 -0.62653,0.63123 -6.51612,-4.22504 -8.23224,-6.78788 -1.36249,-2.03475 -1.78475,-5.49927 -2.08919,-17.1414 l -0.38157,-14.59124 -2.53209,0.48404 c -2.52598,0.48287 -2.53056,0.50357 -1.90087,8.59123 0.34717,4.45896 0.63391,11.32809 0.6372,15.26473 l 0.006,7.15754 8.48656,11.84246 c 8.41123,11.73736 9.93601,15.5199 7.31344,18.14247 -2.5304,2.5304 -5.56565,0.9208 -16.16176,-8.57062 z m 33.008509,-2.88026 c -1.0074,-11.91748 -0.75745,-62.04689 0.40063,-80.34912 1.12115,-17.71869 3.22627,-37.65458 5.04214,-47.75 l 1.12419,-6.25 23.64315,0.007 c 31.56294,0.009 31.20022,-0.2222 34.26166,21.8189 1.04464,7.52098 2.80036,21.29355 3.90159,30.60571 1.65214,13.9707 2.43809,17.67493 4.49493,21.18465 2.97605,5.07825 7.16232,8.24166 13.96406,10.55214 l 5.02091,1.70555 -0.0125,5.31323 c -0.0169,7.16183 -2.50097,47.99208 -3.01543,49.56323 -0.31919,0.97479 -10.07119,1.25 -44.29395,1.25 h -43.88465 z m 102.35326,6.1631 c 0,-0.81827 -0.65524,-10.83077 -1.4561,-22.25 -0.80085,-11.41922 -1.61477,-23.54298 -1.80871,-26.94168 l -0.3526,-6.17945 4.0587,-1.06073 c 6.57867,-1.71932 11.79454,-5.28943 14.74474,-10.09233 2.52934,-4.11776 3.07812,-7.01546 6.6517,-35.12271 4.20737,-33.09218 4.55335,-34.28663 10.8134,-37.33225 2.55222,-1.24169 7.52375,-1.53307 26.15757,-1.53307 h 23.00644 l 1.60525,9.25 c 3.43404,19.78811 4.75508,38.47813 5.29297,74.88471 0.29769,20.1491 0.21567,41.4116 -0.18228,47.25 l -0.72354,10.61529 h -43.90377 c -38.19858,0 -43.90377,-0.19333 -43.90377,-1.48778 z m -17.83173,-62.65795 c -7.35528,-3.64077 -8.92116,-7.19808 -11.19622,-25.43526 -5.98032,-47.93897 -5.75427,-46.85951 -10.82271,-51.68183 -5.57347,-5.30283 -8.05662,-5.73718 -32.79856,-5.73718 -13.3367,0 -22.35078,-0.3804 -22.35078,-0.94321 0,-0.51877 0.87807,-9.40627 1.95126,-19.75 1.0732,-10.34374 2.2563,-22.51929 2.62913,-27.05679 l 0.67786,-8.25 69.12088,-0.0802 c 38.01648,-0.0441 75.30837,-0.24674 82.87087,-0.45034 7.5625,-0.20361 13.75,-0.24979 13.75,-0.10263 0,1.59249 4.18213,48.33753 4.64182,51.88313 l 0.61584,4.75 h -22.26281 c -13.74754,0 -23.71536,0.43519 -26.06044,1.13779 -5.29763,1.58721 -10.58552,7.32365 -11.85647,12.86221 -0.56795,2.475 -2.40663,15.75 -4.08596,29.5 -1.67933,13.75 -3.49278,26.63808 -4.02989,28.64017 -1.21265,4.52021 -7.46493,10.35031 -12.64131,11.7877 -6.19743,1.72093 -13.36302,1.29713 -18.15251,-1.0736 z m -128.824699,-35.578 -8.15642,-0.35413 -0.593,-10.21107 c -1.08392,-18.66442 -3.61388,-88.0642 -3.56204,-97.71107 0.0487,-9.05358 3.86218,-40.22763 5.06864,-41.43409 0.58264,-0.58264 15.84936,0.47184 37.22658,2.57126 l 11.827329,1.16154 -0.62333,8.60064 c -1.30291,17.97742 -5.34458,50.23589 -12.103119,96.60065 -1.36293,9.35 -3.25435,22.4 -4.20314,29 l -1.72507,12 -7.5,0.0652 c -4.125,0.0359 -11.17039,-0.0942 -15.65643,-0.28893 z M 318.72413,567.95238 c -5.09414,-34.41081 -10.4391,-72.79541 -12.63671,-90.75 -1.55574,-12.71052 -3.7098,-39.65688 -3.21007,-40.15661 0.56739,-0.56739 47.97386,-4.37959 48.45678,-3.89666 0.26746,0.26745 1.08717,4.21385 1.82158,8.76977 3.21844,19.96549 3.52311,27.42159 2.47538,60.57919 -0.56838,17.98737 -1.33819,43.39181 -1.7107,56.45431 l -0.67728,23.75 H 337.07541 320.9077 Z M 121.2628,449.46169 c -0.33273,-15.81114 -1.30223,-31.80514 -2.59192,-42.75931 -1.1332,-9.625 -2.35489,-23.575 -2.71486,-31 l -0.6545,-13.5 3.72664,4.27622 c 6.74306,7.73748 0.62297,7.22378 86.06281,7.22378 h 76.63621 l 6.52941,-6.25 6.52941,-6.25 -0.65856,9.5 c -0.71832,10.36212 -2.87824,34.28007 -5.1365,56.87929 -0.79028,7.90861 -1.43687,21.73672 -1.43687,30.72912 v 16.34984 l -82.87985,0.0302 -82.87986,0.0302 z M 80.188221,429.62115 c -12.02622,-0.99943 -21.97853,-1.95251 -22.11624,-2.11796 -0.13771,-0.16545 0.56686,-11.32581 1.5657,-24.80081 0.99885,-13.475 2.75173,-37.775 3.89529,-54 2.65642,-37.68963 3.995,-47.21012 7.77278,-55.28305 5.20735,-11.12786 10.36722,-15.58048 25.0915,-21.65228 l 7.284299,-3.00381 1.36453,3.26577 c 0.75049,1.79617 2.1843,7.06998 3.18626,11.71957 3.01224,13.97836 2.21163,102.94014 -1.27525,141.7038 -0.5064,5.62957 -0.77766,6.23689 -2.73261,6.11796 -1.19373,-0.0726 -12.010049,-0.94976 -24.036259,-1.94919 z m 221.965379,-4.6234 c -2.63965,-29.28233 -4.42447,-116.81179 -2.68635,-131.74133 0.57283,-4.92028 2.02619,-12.26287 3.22969,-16.31687 2.52984,-8.52181 1.82459,-8.38052 14.83249,-2.97141 8.66106,3.60156 14.77594,8.80829 18.98553,16.16588 5.62928,9.83895 5.37538,7.84639 11.03083,86.56836 1.63977,22.825 3.1855,43.58901 3.43496,46.14226 l 0.45357,4.64225 -5.19012,0.59416 c -2.85457,0.32678 -11.94013,1.05622 -20.19013,1.62097 -8.25,0.56474 -16.86478,1.26628 -19.14395,1.55896 l -4.14395,0.53214 z m -180.33372,-63.0079 -6.26581,-6.71252 -0.006,-28.03748 c -0.006,-29.63501 -1.06741,-41.22618 -4.89746,-53.49455 -1.1087,-3.55139 -1.92151,-6.54267 -1.80624,-6.64729 0.11528,-0.10462 7.18459,-2.87765 15.70959,-6.1623 22.58614,-8.70235 43.24088,-18.00688 45.25,-20.38419 1.46905,-1.73827 1.75,-4.13999 1.75,-14.95993 0,-7.08906 0.17186,-12.88921 0.38191,-12.88921 0.21005,0 2.57255,2.03574 5.25,4.52388 2.67745,2.48813 7.76422,5.96607 11.30393,7.72876 5.88068,2.92843 7.26256,3.20672 16.01959,3.22613 8.81408,0.0195 10.10417,-0.23786 16.06416,-3.20489 3.56422,-1.77437 8.67105,-5.26187 11.3485,-7.75 2.67745,-2.48814 5.03995,-4.52388 5.25,-4.52388 0.21005,0 0.38191,6.00525 0.38191,13.34501 0,15.10026 -0.25407,14.54586 8.72882,19.0471 7.25627,3.63605 33.86547,14.62246 45.06908,18.60813 7.40767,2.63527 9.17265,3.63218 8.68179,4.90374 -4.85374,12.57341 -6.49874,28.76475 -6.09302,59.9722 l 0.3299,25.37618 -4.44162,5.12382 c -2.4429,2.8181 -5.55422,6.13632 -6.91405,7.37382 l -2.47243,2.25 h -76.17842 -76.17842 z m 71.31235,-87.35234 c 0.7699,-0.63896 1.15322,-1.56076 0.85181,-2.04844 -0.3014,-0.48768 -11.58395,-0.88669 -25.07232,-0.88669 -19.17268,0 -24.43434,0.27277 -24.11201,1.25 0.22676,0.6875 1.30495,1.7 2.39598,2.25 2.86429,1.44393 44.12747,0.93653 45.93654,-0.56487 z m 67.81978,0.92942 c 1.37062,-0.6245 2.72767,-1.7495 3.01566,-2.5 0.43373,-1.13028 -3.76304,-1.36455 -24.44498,-1.36455 -25.60708,0 -27.29824,0.27037 -23.76862,3.8 1.62734,1.62734 41.64256,1.68448 45.19794,0.0645 z m -65.89794,-53.2042 c -6.58825,-2.18106 -10.04801,-4.34829 -16.60535,-10.40175 -7.74782,-7.15247 -12.92366,-15.01882 -15.83076,-24.0599 -1.64068,-5.10254 -2.86719,-7.24368 -4.60224,-8.03422 -3.6218,-1.6502 -5.35041,-6.11456 -6.5906,-17.02104 -1.31912,-11.60055 -0.79541,-14.87334 2.51289,-15.70367 2.24893,-0.56444 2.38511,-1.10933 3.06535,-12.26523 0.39153,-6.421 1.12905,-13.89162 1.63894,-16.60138 3.12327,-16.59829 16.12486,-29.391928 33.64196,-33.103878 23.28969,-4.93519 44.58459,4.12629 53.75184,22.872668 3.67248,7.50998 5.4919,17.86341 5.50977,31.35348 0.008,5.77015 0.19698,6.28556 2.7582,7.50834 2.42385,1.1572 2.78639,1.95005 3.05678,6.68499 0.40845,7.15239 -1.47744,18.85549 -3.64138,22.59702 -0.95882,1.65782 -2.70849,3.4456 -3.88817,3.97285 -1.40748,0.62906 -2.53655,2.51993 -3.28417,5.5 -2.28934,9.12559 -7.01943,17.16451 -14.50271,24.64779 -9.47142,9.47143 -15.61582,12.617 -25.49035,13.04958 -4.4443,0.1947 -9.12971,-0.21096 -11.5,-0.99565 z"
       id="path1" />
  </g>
</svg>
